<svg width="260" height="260" viewBox="0 0 260 260" fill="none" xmlns="http://www.w3.org/2000/svg">
<rect width="260" height="260" rx="70" fill="#FFA800"/>
<g clip-path="url(#clip0_502_1826)">
<path d="M74.9118 200.024C85.2443 200.024 93.6204 194.301 93.6204 187.241C93.6204 180.182 85.2443 174.459 74.9118 174.459C64.5793 174.459 56.2031 180.182 56.2031 187.241C56.2031 194.301 64.5793 200.024 74.9118 200.024Z" fill="#FFA800"/>
<path fill-rule="evenodd" clip-rule="evenodd" d="M35 93.7117H127.296V145.776H35V93.7117ZM35 93.7117H127.296V145.776H35V93.7117Z" fill="#FFA800"/>
<path fill-rule="evenodd" clip-rule="evenodd" d="M47.4723 96.8294H139.768V148.894H47.4723V96.8294ZM47.4723 96.8294H139.768V148.894H47.4723V96.8294Z" fill="#FFA800"/>
<path fill-rule="evenodd" clip-rule="evenodd" d="M103.549 90.635C103.549 90.635 103.169 81.4663 92.8663 81.5511C82.5631 81.6359 49.0674 81.5511 49.0674 81.5511C49.0674 81.5511 34.5034 83.2034 35.18 95.978C41.275 95.9468 41.5896 95.978 41.5896 95.978L42.6579 93.8408H47.9992C47.9992 93.8408 47.6528 95.7152 50.1357 95.978C52.6187 96.2408 56.0112 95.4439 56.0112 95.4439L56.5453 101.321L103.549 100.787L106.754 98.6498L120.107 102.924V105.596L106.754 109.871L104.083 106.665H56.0112V112.542H48.5327C48.5327 112.542 49.2106 114.596 45.3279 114.68C41.4452 114.763 41.0561 112.542 41.0561 112.542H34.6459V125.366H72.5693C72.5693 125.366 77.9053 115.762 88.0591 115.748C98.2129 115.734 101.412 123.231 101.412 123.231L87.525 123.765C87.525 123.765 82.6844 127.724 82.7178 131.78C82.7511 135.835 88.0591 140.329 88.0591 140.329H101.412C101.412 140.329 98.4462 148.523 88.0591 148.344C77.6721 148.166 72.5693 138.192 72.5693 138.192H34.6459V147.81H44.2609V153.687C44.2609 153.687 44.2665 154.106 43.1926 153.153C42.1187 152.2 43.1533 152.514 41.5902 152.619C40.0271 152.724 38.387 153.808 38.3854 158.496C38.3839 163.184 40.1656 164.914 41.5902 164.908C43.0149 164.903 42.3245 163.973 43.1926 163.839C44.0607 163.706 46.3974 163.839 46.3974 163.839C46.3974 163.839 44.4679 165.759 42.6585 170.786C40.849 175.812 41.0561 181.473 41.0561 181.473H46.3974C46.3974 181.473 45.621 190.866 52.2729 199.105C58.9247 207.345 68.1253 209.526 75.7747 209.258C86.5219 208.987 93.4491 204.91 97.6741 198.153C101.899 191.396 102.663 181.629 102.663 181.629L107.822 187.883C107.845 188.785 108.045 189.675 108.411 190.5C108.778 191.325 109.304 192.07 109.959 192.692C112.18 194.79 113.697 194.829 113.697 194.829H166.042C166.042 194.829 168.128 194.18 169.247 192.692C170.367 191.203 170.85 187.883 170.85 187.883L176.191 182.539C176.191 182.539 176.43 193.472 183.669 200.707C190.907 207.941 198.179 209.772 203.432 209.79C208.684 209.809 214.093 209.442 219.456 205.516C225.352 201.458 228.967 197.529 230.817 192.229C232.668 186.929 232.545 184.716 232.275 180.402C232.138 175.289 229.848 168.775 226.399 164.372C222.951 159.97 221.151 158.454 216.786 156.376C212.421 154.299 210.475 154.399 209.307 154.22C207.656 153.967 216.836 151.137 220.216 151.7C223.596 152.263 211.766 146.81 205.034 146.74C198.302 146.669 191.147 149.411 191.147 149.411L183.669 130.71H188.476C188.476 130.71 192.477 129.7 192.215 123.763C191.953 117.827 188.476 115.748 188.476 115.748L176.725 116.284L174.054 112.542C174.054 112.542 175.225 110.388 174.589 108.801C173.952 107.214 172.229 106.71 170.85 106.664C169.47 106.617 167.645 106.664 167.645 106.664C167.645 106.664 165.872 107.398 167.111 108.801C168.35 110.204 168.053 110.649 169.247 111.473C170.06 111.998 170.967 112.361 171.918 112.541L172.986 113.076L175.657 116.817L171.918 117.351L168.179 115.748C168.179 115.748 142.606 99.5078 132.926 88.4975C128.785 83.787 114.231 83.6885 114.231 83.6885C114.231 83.6885 108.254 81.22 103.549 90.635ZM58.3859 181.318H68.3639C68.3639 181.318 68.5921 188.087 74.6001 187.865C80.6081 187.642 80.5245 181.318 80.5245 181.318H90.8143C90.7366 181.377 90.6584 184.15 90.5025 185.371C90.3465 186.591 88.3082 197.763 74.9119 198.153C61.6805 198.538 58.9104 186.487 58.6977 185.371C58.4851 184.254 58.3859 181.318 58.3859 181.318Z" fill="white"/>
<path fill-rule="evenodd" clip-rule="evenodd" d="M96.4269 152.012C96.4269 152.012 100.219 153.695 102.975 159.806C105.731 165.916 105.781 173.835 105.781 173.835C105.781 173.835 107.992 166.446 104.107 159.356C100.31 153.21 96.4269 152.012 96.4269 152.012Z" fill="#FFA800"/>
<path fill-rule="evenodd" clip-rule="evenodd" d="M132.285 104.624C130.719 107.849 129.768 111.338 129.479 114.912C128.949 120.995 128.855 128.318 128.855 128.318L156.606 141.412C156.606 141.412 160.542 142.923 161.907 146.4C163.272 149.877 162.652 151.684 161.907 152.947C161.162 154.21 149.435 176.018 149.435 176.018C149.435 176.018 153.76 175.768 156.294 177.265C158.829 178.761 158.165 179.135 158.165 179.135C158.165 179.135 164.342 175.808 166.584 171.341C168.826 166.874 170.629 163.915 170.949 160.118C171.27 156.321 170.949 124.888 170.949 124.888L132.285 104.624Z" fill="#FFA800"/>
<path fill-rule="evenodd" clip-rule="evenodd" d="M128.543 149.518C128.543 149.518 134.235 150.924 139.145 152.012C144.055 153.099 148.811 153.882 148.811 153.882C148.811 153.882 144.897 159.22 143.198 163.547C141.5 167.874 139.457 177.576 139.457 177.576C135.594 176.515 132.126 174.348 129.479 171.341C125.06 166.318 123.243 158.247 123.243 158.247C123.243 158.247 127.099 155.628 128.543 149.518Z" fill="#FFA800"/>
<path fill-rule="evenodd" clip-rule="evenodd" d="M194.959 168.535L199.636 177.265C199.636 177.265 197.924 179.265 198.077 181.629C198.185 183.307 198.808 185.085 199.636 185.994C200.605 187.058 202.7 188.341 204.625 188.176C206.301 188.018 207.858 187.239 208.991 185.994C209.835 185.044 210.416 183.239 210.55 181.941C210.622 181.234 209.477 177.984 208.367 176.953C207.313 175.973 204.658 175.447 203.69 175.706C202.721 175.964 198.701 166.665 198.701 166.665C198.701 166.665 200.264 165.352 203.69 165.418C207.116 165.483 212.997 166.691 216.162 170.718C219.218 174.605 220.257 176.756 220.528 181.318C220.798 185.879 219.514 189.961 215.539 193.788C212.729 196.545 208.947 198.085 205.011 198.076C198.891 198.053 196.958 196.385 193.895 194.279C191.108 192.362 187.792 187.039 187.787 181.941C187.782 176.843 188.45 175.36 190.282 172.588C192.114 169.816 193.076 169.54 194.959 168.535Z" fill="#FFA800"/>
<path fill-rule="evenodd" clip-rule="evenodd" d="M80.2126 193.788C80.2126 193.788 83.2578 192.021 84.8898 189.735C85.9445 188.194 86.7837 186.516 87.3843 184.747C87.3843 184.747 87.1458 188.063 85.2016 190.047C83.2575 192.031 82.4727 192.721 80.2126 193.788ZM80.2126 193.788C80.2126 193.788 83.2578 192.021 84.8898 189.735C85.9445 188.194 86.7837 186.516 87.3843 184.747C87.3843 184.747 87.1458 188.063 85.2016 190.047C83.2575 192.031 82.4727 192.721 80.2126 193.788Z" fill="white"/>
<path fill-rule="evenodd" clip-rule="evenodd" d="M77.718 191.294C77.718 191.294 80.3659 190.016 81.785 188.359C82.6869 187.272 83.4183 186.054 83.9542 184.747C83.9542 184.747 83.7469 187.148 82.0562 188.585C80.3656 190.022 79.6824 190.522 77.718 191.294ZM77.718 191.294C77.718 191.294 80.3659 190.016 81.785 188.359C82.6869 187.272 83.4183 186.054 83.9542 184.747C83.9542 184.747 83.7469 187.148 82.0562 188.585C80.3656 190.022 79.6824 190.522 77.718 191.294Z" fill="white"/>
<path fill-rule="evenodd" clip-rule="evenodd" d="M210.238 193.165C210.238 193.165 213.283 191.398 214.915 189.112C215.97 187.57 216.809 185.892 217.409 184.124C217.409 184.124 217.171 187.44 215.227 189.424C213.283 191.407 212.498 192.098 210.238 193.165ZM210.238 193.165C210.238 193.165 213.283 191.398 214.915 189.112C215.97 187.57 216.809 185.892 217.409 184.124C217.409 184.124 217.171 187.44 215.227 189.424C213.283 191.407 212.498 192.098 210.238 193.165Z" fill="white"/>
<path fill-rule="evenodd" clip-rule="evenodd" d="M207.743 190.671C207.743 190.671 210.391 189.392 211.81 187.736C212.712 186.648 213.444 185.43 213.98 184.124C213.98 184.124 213.772 186.524 212.082 187.961C210.391 189.399 209.708 189.898 207.743 190.671ZM207.743 190.671C207.743 190.671 210.391 189.392 211.81 187.736C212.712 186.648 213.444 185.43 213.98 184.124C213.98 184.124 213.772 186.524 212.082 187.961C210.391 189.399 209.708 189.898 207.743 190.671Z" fill="white"/>
<path fill-rule="evenodd" clip-rule="evenodd" d="M138.833 60.9765C139.998 62.4321 139.852 76.6486 138.255 78.6012C136.686 80.5188 123.297 73.3464 123.243 72.5118C123.188 71.6772 120.436 59.1059 120.436 59.1059C120.436 59.1059 137.668 59.5208 138.833 60.9765Z" fill="#FFA800"/>
<path fill-rule="evenodd" clip-rule="evenodd" d="M112.329 80.9294C112.99 81.5168 136.613 86.4315 137.274 85.9177C137.935 85.4039 139.083 82.6064 139.457 80.6177C139.727 79.1801 138.833 77.5 138.833 77.5L124.38 71.9331L122.778 61.7808L139.457 64.4059C139.457 64.4059 140.31 63.763 139.87 61.7808C139.43 59.7986 133.271 51.3367 123.846 51.6288C114.421 51.921 107.825 58.2351 106.754 62.8496C105.682 67.464 106.675 70.8956 107.822 72.4675C108.968 74.0394 111.668 80.3421 112.329 80.9294Z" fill="white"/>
</g>
<defs>
<clipPath id="clip0_502_1826">
<rect width="198" height="159" fill="white" transform="translate(35 51)"/>
</clipPath>
</defs>
</svg>
