<svg width="526" height="147" viewBox="0 0 526 147" fill="none" xmlns="http://www.w3.org/2000/svg">
<rect width="526" height="147" fill="white"/>
<g clip-path="url(#clip0_501_1747)">
<path d="M105.1 117.1C111.727 117.1 117.1 113.429 117.1 108.9C117.1 104.371 111.727 100.7 105.1 100.7C98.4726 100.7 93.1 104.371 93.1 108.9C93.1 113.429 98.4726 117.1 105.1 117.1Z" fill="white"/>
<path fill-rule="evenodd" clip-rule="evenodd" d="M79.5 48.9H138.7V82.3H79.5V48.9ZM79.5 48.9H138.7V82.3H79.5V48.9Z" fill="white"/>
<path fill-rule="evenodd" clip-rule="evenodd" d="M87.5 50.9H146.7V84.3H87.5V50.9ZM87.5 50.9H146.7V84.3H87.5V50.9Z" fill="white"/>
<path fill-rule="evenodd" clip-rule="evenodd" d="M123.468 46.9262C123.468 46.9262 123.225 41.0444 116.616 41.0988C110.008 41.1532 88.523 41.0988 88.523 41.0988C88.523 41.0988 79.1814 42.1588 79.6154 50.3538C83.5248 50.3338 83.7266 50.3538 83.7266 50.3538L84.4118 48.9828H87.8378C87.8378 48.9828 87.6156 50.1852 89.2082 50.3538C90.8008 50.5224 92.9768 50.0112 92.9768 50.0112L93.3194 53.7816L123.468 53.4388L125.524 52.0678L134.089 54.81V56.5238L125.524 59.2662L123.811 57.2094H92.9768V60.98H88.18C88.18 60.98 88.6148 62.2976 86.1244 62.3512C83.634 62.4048 83.3844 60.98 83.3844 60.98H79.2728V69.2066H103.597C103.597 69.2066 107.02 63.0456 113.533 63.0366C120.046 63.0276 122.098 67.8366 122.098 67.8366L113.19 68.1794C113.19 68.1794 110.085 70.7194 110.107 73.321C110.128 75.9226 113.533 78.8054 113.533 78.8054H122.098C122.098 78.8054 120.195 84.0618 113.533 83.9472C106.87 83.8326 103.597 77.4344 103.597 77.4344H79.2728V83.6044H85.44V87.3748C85.44 87.3748 85.4436 87.6434 84.7548 87.0322C84.066 86.421 84.7296 86.6222 83.727 86.6894C82.7244 86.7566 81.6724 87.4524 81.6714 90.4598C81.6704 93.4672 82.8132 94.5766 83.727 94.5732C84.6408 94.5698 84.198 93.9732 84.7548 93.8876C85.3116 93.802 86.8104 93.8876 86.8104 93.8876C86.8104 93.8876 85.5728 95.1192 84.4122 98.3438C83.2516 101.568 83.3844 105.199 83.3844 105.199H86.8104C86.8104 105.199 86.3124 111.225 90.579 116.511C94.8456 121.797 100.747 123.196 105.653 123.024C112.547 122.85 116.99 120.234 119.7 115.9C122.41 111.566 122.9 105.3 122.9 105.3L126.209 109.312C126.224 109.891 126.352 110.461 126.587 110.991C126.822 111.52 127.159 111.998 127.579 112.397C129.005 113.743 129.978 113.768 129.978 113.768H163.552C163.552 113.768 164.89 113.351 165.608 112.397C166.326 111.442 166.636 109.312 166.636 109.312L170.062 105.884C170.062 105.884 170.215 112.897 174.858 117.538C179.501 122.179 184.165 123.354 187.534 123.366C190.903 123.378 194.373 123.142 197.812 120.623C201.594 118.02 203.913 115.5 205.1 112.1C206.287 108.7 206.208 107.28 206.035 104.513C205.947 101.233 204.478 97.0538 202.266 94.2294C200.054 91.405 198.9 90.433 196.1 89.1C193.3 87.767 192.052 87.8314 191.303 87.7166C190.244 87.5544 196.132 85.7388 198.3 86.1C200.468 86.4612 192.88 82.9628 188.562 82.9178C184.244 82.8728 179.655 84.6316 179.655 84.6316L174.858 72.6344H177.942C177.942 72.6344 180.508 71.9868 180.34 68.1784C180.172 64.37 177.942 63.0366 177.942 63.0366L170.404 63.38L168.691 60.98C168.691 60.98 169.442 59.598 169.034 58.58C168.626 57.562 167.521 57.2386 166.636 57.2088C165.751 57.179 164.58 57.2088 164.58 57.2088C164.58 57.2088 163.443 57.68 164.238 58.58C165.032 59.48 164.842 59.7656 165.608 60.2938C166.129 60.6307 166.711 60.8636 167.321 60.9794L168.006 61.3222L169.719 63.7222L167.321 64.065L164.923 63.0366C164.923 63.0366 148.52 52.6182 142.311 45.555C139.655 42.5332 130.32 42.47 130.32 42.47C130.32 42.47 126.486 40.8864 123.468 46.9262ZM94.5 105.1H100.9C100.9 105.1 101.046 109.443 104.9 109.3C108.754 109.157 108.7 105.1 108.7 105.1H115.3C115.25 105.138 115.2 106.917 115.1 107.7C115 108.483 113.693 115.65 105.1 115.9C96.6132 116.147 94.8364 108.416 94.7 107.7C94.5636 106.984 94.5 105.1 94.5 105.1Z" fill="#FFA800"/>
<path fill-rule="evenodd" clip-rule="evenodd" d="M118.9 86.3C118.9 86.3 121.332 87.38 123.1 91.3C124.868 95.22 124.9 100.3 124.9 100.3C124.9 100.3 126.318 95.56 123.826 91.0116C121.39 87.0688 118.9 86.3 118.9 86.3Z" fill="white"/>
<path fill-rule="evenodd" clip-rule="evenodd" d="M141.9 55.9C140.896 57.9693 140.285 60.2074 140.1 62.5C139.76 66.4024 139.7 71.1 139.7 71.1L157.5 79.5C157.5 79.5 160.024 80.4692 160.9 82.7C161.776 84.9308 161.378 86.0898 160.9 86.9C160.422 87.7102 152.9 101.7 152.9 101.7C152.9 101.7 155.674 101.54 157.3 102.5C158.926 103.46 158.5 103.7 158.5 103.7C158.5 103.7 162.462 101.566 163.9 98.7C165.338 95.8342 166.494 93.9358 166.7 91.5C166.906 89.0642 166.7 68.9 166.7 68.9L141.9 55.9Z" fill="white"/>
<path fill-rule="evenodd" clip-rule="evenodd" d="M139.5 84.7C139.5 84.7 143.151 85.6024 146.3 86.3C149.449 86.9976 152.5 87.5 152.5 87.5C152.5 87.5 149.989 90.9244 148.9 93.7C147.811 96.4756 146.5 102.7 146.5 102.7C144.022 102.019 141.798 100.629 140.1 98.7C137.266 95.4778 136.1 90.3 136.1 90.3C136.1 90.3 138.574 88.62 139.5 84.7Z" fill="white"/>
<path fill-rule="evenodd" clip-rule="evenodd" d="M182.1 96.9L185.1 102.5C185.1 102.5 184.002 103.783 184.1 105.3C184.169 106.376 184.569 107.517 185.1 108.1C185.722 108.783 187.065 109.605 188.3 109.5C189.375 109.398 190.373 108.899 191.1 108.1C191.642 107.49 192.014 106.332 192.1 105.5C192.147 105.046 191.412 102.962 190.7 102.3C190.024 101.671 188.321 101.334 187.7 101.5C187.079 101.666 184.5 95.7 184.5 95.7C184.5 95.7 185.503 94.8578 187.7 94.9C189.897 94.9422 193.67 95.717 195.7 98.3C197.66 100.794 198.326 102.174 198.5 105.1C198.674 108.026 197.85 110.645 195.3 113.1C193.498 114.869 191.072 115.857 188.547 115.851C184.622 115.836 183.382 114.766 181.418 113.415C179.63 112.185 177.503 108.771 177.5 105.5C177.497 102.229 177.925 101.278 179.1 99.5C180.275 97.7216 180.892 97.5442 182.1 96.9Z" fill="white"/>
<path fill-rule="evenodd" clip-rule="evenodd" d="M108.5 113.1C108.5 113.1 110.453 111.966 111.5 110.5C112.176 109.511 112.715 108.434 113.1 107.3C113.1 107.3 112.947 109.427 111.7 110.7C110.453 111.973 109.95 112.416 108.5 113.1ZM108.5 113.1C108.5 113.1 110.453 111.966 111.5 110.5C112.176 109.511 112.715 108.434 113.1 107.3C113.1 107.3 112.947 109.427 111.7 110.7C110.453 111.973 109.95 112.416 108.5 113.1Z" fill="#FFA800"/>
<path fill-rule="evenodd" clip-rule="evenodd" d="M106.9 111.5C106.9 111.5 108.598 110.68 109.509 109.617C110.087 108.92 110.556 108.138 110.9 107.3C110.9 107.3 110.767 108.84 109.683 109.762C108.598 110.684 108.16 111.004 106.9 111.5ZM106.9 111.5C106.9 111.5 108.598 110.68 109.509 109.617C110.087 108.92 110.556 108.138 110.9 107.3C110.9 107.3 110.767 108.84 109.683 109.762C108.598 110.684 108.16 111.004 106.9 111.5Z" fill="#FFA800"/>
<path fill-rule="evenodd" clip-rule="evenodd" d="M191.9 112.7C191.9 112.7 193.853 111.566 194.9 110.1C195.577 109.111 196.115 108.035 196.5 106.9C196.5 106.9 196.347 109.027 195.1 110.3C193.853 111.573 193.35 112.016 191.9 112.7ZM191.9 112.7C191.9 112.7 193.853 111.566 194.9 110.1C195.577 109.111 196.115 108.035 196.5 106.9C196.5 106.9 196.347 109.027 195.1 110.3C193.853 111.573 193.35 112.016 191.9 112.7Z" fill="#FFA800"/>
<path fill-rule="evenodd" clip-rule="evenodd" d="M190.3 111.1C190.3 111.1 191.998 110.28 192.909 109.217C193.487 108.52 193.956 107.738 194.3 106.9C194.3 106.9 194.167 108.44 193.083 109.362C191.998 110.284 191.56 110.604 190.3 111.1ZM190.3 111.1C190.3 111.1 191.998 110.28 192.909 109.217C193.487 108.52 193.956 107.738 194.3 106.9C194.3 106.9 194.167 108.44 193.083 109.362C191.998 110.284 191.56 110.604 190.3 111.1Z" fill="#FFA800"/>
<path fill-rule="evenodd" clip-rule="evenodd" d="M146.1 27.9C146.847 28.8338 146.754 37.9538 145.729 39.2064C144.723 40.4366 136.135 35.8354 136.1 35.3C136.065 34.7646 134.3 26.7 134.3 26.7C134.3 26.7 145.353 26.9662 146.1 27.9Z" fill="white"/>
<path fill-rule="evenodd" clip-rule="evenodd" d="M129.1 40.7C129.524 41.0768 144.676 44.2296 145.1 43.9C145.524 43.5704 146.26 41.7758 146.5 40.5C146.673 39.5778 146.1 38.5 146.1 38.5L136.83 34.9288L135.802 28.416L146.5 30.1C146.5 30.1 147.047 29.6876 146.765 28.416C146.483 27.1444 142.532 21.716 136.487 21.9034C130.442 22.0908 126.211 26.1414 125.524 29.1016C124.836 32.0618 125.474 34.2632 126.209 35.2716C126.944 36.28 128.676 40.3232 129.1 40.7Z" fill="#FFA800"/>
<path d="M231.676 88.836C229.212 88.836 227.004 88.436 225.052 87.636C223.1 86.836 221.532 85.652 220.348 84.084C219.196 82.516 218.588 80.628 218.524 78.42H227.26C227.388 79.668 227.82 80.628 228.556 81.3C229.292 81.94 230.252 82.26 231.436 82.26C232.652 82.26 233.612 81.988 234.316 81.444C235.02 80.868 235.372 80.084 235.372 79.092C235.372 78.26 235.084 77.572 234.508 77.028C233.964 76.484 233.276 76.036 232.444 75.684C231.644 75.332 230.492 74.932 228.988 74.484C226.812 73.812 225.036 73.14 223.66 72.468C222.284 71.796 221.1 70.804 220.108 69.492C219.116 68.18 218.62 66.468 218.62 64.356C218.62 61.22 219.756 58.772 222.028 57.012C224.3 55.22 227.26 54.324 230.908 54.324C234.62 54.324 237.612 55.22 239.884 57.012C242.156 58.772 243.372 61.236 243.532 64.404H234.652C234.588 63.316 234.188 62.468 233.452 61.86C232.716 61.22 231.772 60.9 230.62 60.9C229.628 60.9 228.828 61.172 228.22 61.716C227.612 62.228 227.308 62.98 227.308 63.972C227.308 65.06 227.82 65.908 228.844 66.516C229.868 67.124 231.468 67.78 233.644 68.484C235.82 69.22 237.58 69.924 238.924 70.596C240.3 71.268 241.484 72.244 242.476 73.524C243.468 74.804 243.964 76.452 243.964 78.468C243.964 80.388 243.468 82.132 242.476 83.7C241.516 85.268 240.108 86.516 238.252 87.444C236.396 88.372 234.204 88.836 231.676 88.836ZM274.263 74.676C274.263 75.444 274.215 76.244 274.119 77.076H255.543C255.671 78.74 256.199 80.02 257.127 80.916C258.087 81.78 259.255 82.212 260.631 82.212C262.679 82.212 264.103 81.348 264.903 79.62H273.639C273.191 81.38 272.375 82.964 271.191 84.372C270.039 85.78 268.583 86.884 266.823 87.684C265.063 88.484 263.095 88.884 260.919 88.884C258.295 88.884 255.959 88.324 253.911 87.204C251.863 86.084 250.263 84.484 249.111 82.404C247.959 80.324 247.383 77.892 247.383 75.108C247.383 72.324 247.943 69.892 249.063 67.812C250.215 65.732 251.815 64.132 253.863 63.012C255.911 61.892 258.263 61.332 260.919 61.332C263.511 61.332 265.815 61.876 267.831 62.964C269.847 64.052 271.415 65.604 272.535 67.62C273.687 69.636 274.263 71.988 274.263 74.676ZM265.863 72.516C265.863 71.108 265.383 69.988 264.423 69.156C263.463 68.324 262.263 67.908 260.823 67.908C259.447 67.908 258.279 68.308 257.319 69.108C256.391 69.908 255.815 71.044 255.591 72.516H265.863ZM286.801 66.18C287.761 64.708 288.961 63.556 290.401 62.724C291.841 61.86 293.441 61.428 295.201 61.428V70.116H292.945C290.897 70.116 289.361 70.564 288.337 71.46C287.313 72.324 286.801 73.86 286.801 76.068V88.5H278.593V61.716H286.801V66.18ZM311.172 80.82L316.98 61.716H325.716L316.212 88.5H306.084L296.58 61.716H305.364L311.172 80.82ZM333.299 58.932C331.859 58.932 330.675 58.516 329.747 57.684C328.851 56.82 328.403 55.764 328.403 54.516C328.403 53.236 328.851 52.18 329.747 51.348C330.675 50.484 331.859 50.052 333.299 50.052C334.707 50.052 335.859 50.484 336.755 51.348C337.683 52.18 338.147 53.236 338.147 54.516C338.147 55.764 337.683 56.82 336.755 57.684C335.859 58.516 334.707 58.932 333.299 58.932ZM337.379 61.716V88.5H329.171V61.716H337.379ZM341.696 75.108C341.696 72.324 342.256 69.892 343.376 67.812C344.528 65.732 346.112 64.132 348.128 63.012C350.176 61.892 352.512 61.332 355.136 61.332C358.496 61.332 361.296 62.212 363.536 63.972C365.808 65.732 367.296 68.212 368 71.412H359.264C358.528 69.364 357.104 68.34 354.992 68.34C353.488 68.34 352.288 68.932 351.392 70.116C350.496 71.268 350.048 72.932 350.048 75.108C350.048 77.284 350.496 78.964 351.392 80.148C352.288 81.3 353.488 81.876 354.992 81.876C357.104 81.876 358.528 80.852 359.264 78.804H368C367.296 81.94 365.808 84.404 363.536 86.196C361.264 87.988 358.464 88.884 355.136 88.884C352.512 88.884 350.176 88.324 348.128 87.204C346.112 86.084 344.528 84.484 343.376 82.404C342.256 80.324 341.696 77.892 341.696 75.108ZM397.638 74.676C397.638 75.444 397.59 76.244 397.494 77.076H378.918C379.046 78.74 379.574 80.02 380.502 80.916C381.462 81.78 382.63 82.212 384.006 82.212C386.054 82.212 387.478 81.348 388.278 79.62H397.014C396.566 81.38 395.75 82.964 394.566 84.372C393.414 85.78 391.958 86.884 390.198 87.684C388.438 88.484 386.47 88.884 384.294 88.884C381.67 88.884 379.334 88.324 377.286 87.204C375.238 86.084 373.638 84.484 372.486 82.404C371.334 80.324 370.758 77.892 370.758 75.108C370.758 72.324 371.318 69.892 372.438 67.812C373.59 65.732 375.19 64.132 377.238 63.012C379.286 61.892 381.638 61.332 384.294 61.332C386.886 61.332 389.19 61.876 391.206 62.964C393.222 64.052 394.79 65.604 395.91 67.62C397.062 69.636 397.638 71.988 397.638 74.676ZM389.238 72.516C389.238 71.108 388.758 69.988 387.798 69.156C386.838 68.324 385.638 67.908 384.198 67.908C382.822 67.908 381.654 68.308 380.694 69.108C379.766 69.908 379.19 71.044 378.966 72.516H389.238ZM410.176 54.804V88.5H401.968V54.804H410.176ZM432.444 61.428C435.58 61.428 438.076 62.452 439.932 64.5C441.82 66.516 442.764 69.3 442.764 72.852V88.5H434.604V73.956C434.604 72.164 434.14 70.772 433.212 69.78C432.284 68.788 431.036 68.292 429.468 68.292C427.9 68.292 426.652 68.788 425.724 69.78C424.796 70.772 424.332 72.164 424.332 73.956V88.5H416.124V61.716H424.332V65.268C425.164 64.084 426.284 63.156 427.692 62.484C429.1 61.78 430.684 61.428 432.444 61.428Z" fill="#FFA800"/>
</g>
<defs>
<clipPath id="clip0_501_1747">
<rect width="367" height="104" fill="white" transform="translate(79 21.5)"/>
</clipPath>
</defs>
</svg>
